<?xml version="1.0" standalone="no"?>
<!DOCTYPE svg PUBLIC "-//W3C//DTD SVG 20010904//EN"
 "http://www.w3.org/TR/2001/REC-SVG-20010904/DTD/svg10.dtd">
<svg version="1.0" xmlns="http://www.w3.org/2000/svg"
 width="1200.000000pt" height="1200.000000pt" viewBox="0 0 1200.000000 1200.000000"
 preserveAspectRatio="xMidYMid meet">

<g transform="translate(0.000000,1200.000000) scale(0.100000,-0.100000)"
fill="#000000" stroke="none">
<path d="M5740 10244 c-646 -58 -1175 -231 -1690 -553 -1025 -639 -1681 -1758
-1728 -2945 -27 -682 99 -1267 399 -1856 200 -393 437 -703 799 -1042 428
-402 1009 -715 1590 -857 304 -74 561 -104 890 -104 329 0 586 30 890 104 581
142 1162 455 1590 857 425 399 702 789 915 1287 293 686 364 1463 204 2220
-293 1391 -1436 2526 -2833 2816 -259 54 -416 70 -711 74 -148 1 -290 1 -315
-1z m445 -84 c457 -28 828 -114 1230 -287 843 -361 1524 -1039 1886 -1877 284
-659 364 -1349 239 -2076 -51 -294 -180 -680 -322 -965 -184 -365 -478 -755
-779 -1032 -505 -463 -1146 -783 -1799 -897 -268 -47 -308 -50 -640 -50 -332
0 -372 3 -640 50 -299 52 -624 157 -910 295 -590 284 -1073 703 -1437 1245
-152 228 -228 367 -326 599 -304 724 -367 1510 -181 2257 276 1107 1038 2006
2079 2451 391 168 778 260 1205 286 185 12 220 12 395 1z"/>
<path d="M5730 10084 c-19 -2 -78 -9 -130 -15 -505 -56 -984 -220 -1429 -488
-252 -153 -420 -287 -676 -545 -146 -147 -230 -241 -310 -348 -329 -439 -545
-926 -650 -1467 -34 -177 -43 -255 -55 -470 -23 -397 24 -787 140 -1186 156
-533 447 -1032 835 -1434 387 -400 808 -678 1320 -870 255 -95 514 -159 810
-198 182 -24 648 -24 830 0 296 39 555 103 810 198 512 192 933 470 1320 870
177 184 323 372 460 594 372 604 555 1322 515 2026 -12 215 -21 293 -55 470
-93 476 -263 894 -528 1294 -130 196 -234 322 -432 521 -330 332 -577 511
-970 704 -353 173 -657 262 -1125 331 -73 10 -611 21 -680 13z m455 -84 c728
-42 1393 -294 1950 -738 292 -233 514 -475 733 -800 290 -432 481 -949 549
-1489 25 -195 24 -615 0 -813 -183 -1473 -1283 -2669 -2730 -2964 -263 -54
-340 -61 -687 -61 -347 0 -424 7 -687 61 -828 169 -1569 642 -2077 1327 -351
472 -580 1047 -653 1637 -24 198 -25 618 0 813 68 540 259 1057 549 1489 219
325 441 567 733 800 547 436 1228 697 1925 737 197 12 209 12 395 1z"/>
<path d="M4527 7994 c-4 -4 -7 -646 -7 -1426 l0 -1418 145 0 145 0 0 1121 c0
911 2 1118 13 1107 7 -7 38 -56 69 -108 183 -311 728 -1239 932 -1587 l101
-173 75 0 75 0 140 241 c156 268 145 249 387 664 96 165 255 437 353 605 245
420 218 379 226 350 4 -14 7 -519 8 -1122 l1 -1098 145 0 145 0 -2 1423 -3
1422 -125 0 -124 0 -602 -1038 c-331 -572 -606 -1043 -612 -1049 -12 -12 3
-35 -196 305 -86 147 -225 385 -309 530 -85 144 -225 384 -312 532 -87 149
-217 371 -289 495 l-132 225 -120 3 c-66 1 -123 -1 -127 -4z"/>
<path d="M4007 2323 c-4 -3 -7 -19 -7 -34 0 -22 6 -30 25 -35 43 -11 73 34 43
64 -13 13 -50 16 -61 5z"/>
<path d="M6140 2040 l0 -290 30 0 30 0 0 126 c0 137 11 179 55 208 38 25 96
30 138 12 56 -23 67 -59 67 -216 l0 -130 31 0 31 0 -4 153 c-3 130 -6 157 -23
185 -46 76 -183 96 -259 38 l-36 -27 0 115 0 116 -30 0 -30 0 0 -290z"/>
<path d="M8207 2323 c-4 -3 -7 -19 -7 -34 0 -22 6 -30 25 -35 43 -11 73 34 43
64 -13 13 -50 16 -61 5z"/>
<path d="M5745 2289 c-106 -31 -143 -162 -66 -231 18 -16 61 -36 103 -48 120
-35 161 -54 177 -82 19 -34 7 -73 -32 -102 -44 -32 -156 -29 -228 7 -51 25
-55 26 -67 9 -11 -15 -9 -20 13 -39 35 -30 116 -53 189 -53 103 1 181 51 193
123 15 97 -26 133 -215 187 -87 25 -112 47 -112 95 0 43 25 70 77 84 54 15 90
13 153 -9 51 -18 56 -18 67 -3 18 23 1 40 -60 58 -55 16 -145 18 -192 4z"/>
<path d="M3280 2021 l0 -271 30 0 30 0 2 205 3 206 100 -171 c68 -114 106
-170 117 -170 12 0 51 56 123 178 l105 177 0 -212 0 -213 30 0 30 0 0 270 0
270 -28 0 c-25 0 -37 -16 -141 -195 -62 -108 -116 -193 -120 -190 -3 3 -56 90
-116 193 -96 163 -114 187 -138 190 l-27 3 0 -270z"/>
<path d="M4610 2205 l0 -45 -40 0 c-36 0 -40 -2 -40 -25 0 -22 4 -25 40 -25
l40 0 0 -140 c0 -155 9 -187 55 -208 35 -16 107 -15 129 1 26 19 13 62 -14 47
-29 -16 -75 -12 -93 8 -14 15 -17 42 -17 155 l0 137 60 0 c57 0 60 1 60 25 0
24 -3 25 -60 25 l-60 0 0 45 c0 43 -1 45 -30 45 -29 0 -30 -2 -30 -45z"/>
<path d="M4010 1955 l0 -205 30 0 30 0 0 205 0 205 -30 0 -30 0 0 -205z"/>
<path d="M4240 2138 c-52 -27 -73 -71 -59 -123 12 -43 40 -61 122 -80 102 -22
126 -34 133 -62 16 -63 -84 -91 -191 -54 -56 19 -61 19 -73 3 -27 -35 56 -72
161 -72 100 0 154 36 164 109 8 61 -29 94 -133 116 -100 22 -124 36 -124 75 0
55 94 78 181 44 35 -14 42 -15 50 -3 24 38 -14 60 -116 66 -59 4 -77 1 -115
-19z"/>
<path d="M4975 2146 c-40 -17 -84 -63 -101 -103 -32 -75 -10 -186 48 -240 57
-53 167 -69 243 -34 55 25 73 47 54 66 -12 13 -21 11 -64 -11 -83 -43 -172
-22 -215 49 -41 66 -40 67 150 67 190 0 181 -5 159 75 -24 89 -99 145 -194
144 -27 0 -63 -6 -80 -13z m153 -56 c32 -20 72 -74 72 -97 0 -10 -35 -13 -140
-13 -157 0 -160 2 -120 68 36 60 126 80 188 42z"/>
<path d="M5360 1955 l0 -205 30 0 30 0 0 100 c0 179 26 238 113 249 37 5 42 9
45 34 3 25 0 27 -30 27 -34 0 -93 -30 -115 -59 -11 -14 -12 -10 -13 22 0 34
-2 37 -30 37 l-30 0 0 -205z"/>
<path d="M6750 2144 c-132 -57 -164 -243 -58 -341 56 -53 159 -68 233 -34 36
16 104 80 105 99 1 4 5 27 9 51 12 59 -8 133 -45 173 -60 63 -166 86 -244 52z
m143 -48 c18 -7 43 -26 57 -41 22 -23 25 -36 25 -100 0 -68 -2 -76 -30 -105
-72 -75 -194 -60 -240 30 -8 16 -15 51 -15 78 0 110 104 180 203 138z"/>
<path d="M7150 1880 l0 -280 30 0 30 0 0 112 0 111 23 -20 c59 -55 148 -68
222 -34 163 75 150 325 -21 381 -61 20 -138 8 -184 -29 l-40 -32 0 36 c0 32
-2 35 -30 35 l-30 0 0 -280z m299 203 c79 -59 80 -197 0 -256 -63 -46 -173
-23 -213 44 -25 42 -25 126 0 168 39 67 150 90 213 44z"/>
<path d="M7680 1880 l0 -280 30 0 30 0 0 112 0 112 21 -23 c80 -85 238 -62
304 44 58 93 32 224 -56 282 -72 48 -185 42 -243 -12 l-26 -24 0 34 c0 32 -2
35 -30 35 l-30 0 0 -280z m270 214 c53 -22 84 -72 84 -139 0 -65 -26 -109 -82
-136 -110 -54 -218 24 -209 149 4 61 28 99 78 124 42 22 77 23 129 2z"/>
<path d="M8210 1955 l0 -205 30 0 30 0 0 205 0 205 -30 0 -30 0 0 -205z"/>
<path d="M8481 2139 c-150 -76 -137 -307 21 -373 50 -21 134 -20 183 3 54 24
67 41 50 64 -12 17 -15 16 -60 -8 -54 -28 -100 -32 -148 -11 -42 17 -87 70
-87 102 l0 24 169 0 170 0 -6 38 c-9 63 -42 121 -85 150 -57 37 -146 42 -207
11z m158 -47 c36 -18 65 -52 76 -89 l6 -23 -145 0 -145 0 9 31 c24 83 120 122
199 81z"/>
</g>
</svg>
